<?xml version="1.0" encoding="UTF-8" standalone="no"?>
<svg width="60px" height="60px" viewBox="0 0 60 60" version="1.1" xmlns="http://www.w3.org/2000/svg" xmlns:xlink="http://www.w3.org/1999/xlink" xmlns:sketch="http://www.bohemiancoding.com/sketch/ns">
    <!-- Generator: Sketch 3.4.4 (17249) - http://www.bohemiancoding.com/sketch -->
    <title>Earth</title>
    <desc>Created with Sketch.</desc>
    <defs>
        <path id="path-1" d="M0,0.987 L935.001,0.987 L935.001,2128 L0,2128 L0,0.987 Z"></path>
        <path id="path-3" d="M0,0.987 L935.001,0.987 L935.001,2128 L0,2128 L0,0.987 Z"></path>
        <path id="path-5" d="M0,0.987 L935.001,0.987 L935.001,2128 L0,2128 L0,0.987 Z"></path>
        <path id="path-7" d="M0,0.987 L935.001,0.987 L935.001,2128 L0,2128 L0,0.987 Z"></path>
        <path id="path-9" d="M0,0.987 L935.001,0.987 L935.001,2128 L0,2128 L0,0.987 Z"></path>
        <path id="path-11" d="M0,0.987 L935.001,0.987 L935.001,2128 L0,2128 L0,0.987 Z"></path>
        <path id="path-13" d="M0,0.987 L935.001,0.987 L935.001,2128 L0,2128 L0,0.987 Z"></path>
        <path id="path-15" d="M0,0.987 L935.001,0.987 L935.001,2128 L0,2128 L0,0.987 Z"></path>
        <path id="path-17" d="M0,0.987 L935.001,0.987 L935.001,2128 L0,2128 L0,0.987 Z"></path>
        <path id="path-19" d="M0,0.987 L935.001,0.987 L935.001,2128 L0,2128 L0,0.987 Z"></path>
        <path id="path-21" d="M0,0.987 L935.001,0.987 L935.001,2128 L0,2128 L0,0.987 Z"></path>
        <path id="path-23" d="M0,0.987 L935.001,0.987 L935.001,2128 L0,2128 L0,0.987 Z"></path>
        <path id="path-25" d="M0,0.987 L935.001,0.987 L935.001,2128 L0,2128 L0,0.987 Z"></path>
        <path id="path-27" d="M0,0.987 L935.001,0.987 L935.001,2128 L0,2128 L0,0.987 Z"></path>
        <path id="path-29" d="M0,0.987 L935.001,0.987 L935.001,2128 L0,2128 L0,0.987 Z"></path>
        <path id="path-31" d="M0,0.987 L935.001,0.987 L935.001,2128 L0,2128 L0,0.987 Z"></path>
        <path id="path-33" d="M0,0.987 L935.001,0.987 L935.001,2128 L0,2128 L0,0.987 Z"></path>
        <path id="path-35" d="M0,0.987 L935.001,0.987 L935.001,2128 L0,2128 L0,0.987 Z"></path>
        <path id="path-37" d="M0,0.987 L935.001,0.987 L935.001,2128 L0,2128 L0,0.987 Z"></path>
        <path id="path-39" d="M0,0.987 L935.001,0.987 L935.001,2128 L0,2128 L0,0.987 Z"></path>
        <path id="path-41" d="M0,0.987 L935.001,0.987 L935.001,2128 L0,2128 L0,0.987 Z"></path>
        <path id="path-43" d="M0,0.987 L935.001,0.987 L935.001,2128 L0,2128 L0,0.987 Z"></path>
        <path id="path-45" d="M0,0.987 L935.001,0.987 L935.001,2128 L0,2128 L0,0.987 Z"></path>
        <path id="path-47" d="M0,0.987 L935.001,0.987 L935.001,2128 L0,2128 L0,0.987 Z"></path>
        <path id="path-49" d="M0,0.987 L935.001,0.987 L935.001,2128 L0,2128 L0,0.987 Z"></path>
        <path id="path-51" d="M0,17.987 C0,27.376 7.612,34.987 17,34.987 L17,34.987 C26.389,34.987 34,27.376 34,17.987 L34,17.987 C34,8.598 26.389,0.987 17,0.987 L17,0.987 C7.612,0.987 0,8.598 0,17.987 L0,17.987 Z"></path>
        <path id="path-53" d="M0,9.487 C0,14.182 3.806,17.987 8.5,17.987 L8.5,17.987 C13.194,17.987 17,14.182 17,9.487 L17,9.487 C17,4.793 13.194,0.988 8.5,0.988 L8.5,0.988 C3.806,0.988 0,4.793 0,9.487 L0,9.487 Z"></path>
        <path id="path-55" d="M0,0.987 L935.001,0.987 L935.001,2128 L0,2128 L0,0.987 Z"></path>
        <path id="path-57" d="M0,0.987 L935.001,0.987 L935.001,2128 L0,2128 L0,0.987 Z"></path>
        <path id="path-59" d="M0,0.987 L935.001,0.987 L935.001,2128 L0,2128 L0,0.987 Z"></path>
        <path id="path-61" d="M0,0.987 L935.001,0.987 L935.001,2128 L0,2128 L0,0.987 Z"></path>
        <path id="path-63" d="M0,0.987 L935.001,0.987 L935.001,2128 L0,2128 L0,0.987 Z"></path>
    </defs>
    <g id="colored" stroke="none" stroke-width="1" fill="none" fill-rule="evenodd" sketch:type="MSPage">
        <g id="Page-1" sketch:type="MSLayerGroup" transform="translate(-617.000000, -1695.000000)">
            <g id="Group-116">
                <mask id="mask-2" sketch:name="Clip 112" fill="white">
                    <use xlink:href="#path-1"></use>
                </mask>
                <g id="Clip-112"></g>
            </g>
            <g id="Group-255">
                <mask id="mask-4" sketch:name="Clip 253" fill="white">
                    <use xlink:href="#path-3"></use>
                </mask>
                <g id="Clip-253"></g>
            </g>
            <g id="Group-321">
                <mask id="mask-6" sketch:name="Clip 298" fill="white">
                    <use xlink:href="#path-5"></use>
                </mask>
                <g id="Clip-298"></g>
            </g>
            <g id="Group-464"></g>
            <g id="Group-556"></g>
            <g id="Group-590"></g>
            <g id="Group-678">
                <mask id="mask-8" sketch:name="Clip 675" fill="white">
                    <use xlink:href="#path-7"></use>
                </mask>
                <g id="Clip-675"></g>
            </g>
            <g id="Group-757"></g>
            <g id="Group-774"></g>
            <g id="Group-799"></g>
            <g id="Group-815"></g>
            <g id="Group-827"></g>
            <g id="Group-850"></g>
            <g id="Group-873"></g>
            <g id="Group-896"></g>
            <g id="Group-919"></g>
            <g id="Group-942"></g>
            <g id="Group-965"></g>
            <g id="Group-988"></g>
            <g id="Group-1010">
                <mask id="mask-10" sketch:name="Clip 1006" fill="white">
                    <use xlink:href="#path-9"></use>
                </mask>
                <g id="Clip-1006"></g>
            </g>
            <g id="Group-1061"></g>
            <g id="Group-1195">
                <mask id="mask-12" sketch:name="Clip 1194" fill="white">
                    <use xlink:href="#path-11"></use>
                </mask>
                <g id="Clip-1194"></g>
            </g>
            <g id="Group-1241">
                <mask id="mask-14" sketch:name="Clip 1237" fill="white">
                    <use xlink:href="#path-13"></use>
                </mask>
                <g id="Clip-1237"></g>
            </g>
            <g id="Group-1262"></g>
            <g id="Group-1330"></g>
            <g id="Group-1358"></g>
            <g id="Group-1369">
                <mask id="mask-16" sketch:name="Clip 1365" fill="white">
                    <use xlink:href="#path-15"></use>
                </mask>
                <g id="Clip-1365"></g>
            </g>
            <g id="Group-1385">
                <mask id="mask-18" sketch:name="Clip 1381" fill="white">
                    <use xlink:href="#path-17"></use>
                </mask>
                <g id="Clip-1381"></g>
            </g>
            <g id="Group-1396"></g>
            <g id="Group-1412">
                <mask id="mask-20" sketch:name="Clip 1408" fill="white">
                    <use xlink:href="#path-19"></use>
                </mask>
                <g id="Clip-1408"></g>
            </g>
            <g id="Group-1430"></g>
            <g id="Group-1459">
                <mask id="mask-22" sketch:name="Clip 1457" fill="white">
                    <use xlink:href="#path-21"></use>
                </mask>
                <g id="Clip-1457"></g>
            </g>
            <g id="Group-1468">
                <mask id="mask-24" sketch:name="Clip 1466" fill="white">
                    <use xlink:href="#path-23"></use>
                </mask>
                <g id="Clip-1466"></g>
            </g>
            <g id="Group-1477">
                <mask id="mask-26" sketch:name="Clip 1475" fill="white">
                    <use xlink:href="#path-25"></use>
                </mask>
                <g id="Clip-1475"></g>
            </g>
            <g id="Group-1486">
                <mask id="mask-28" sketch:name="Clip 1484" fill="white">
                    <use xlink:href="#path-27"></use>
                </mask>
                <g id="Clip-1484"></g>
            </g>
            <g id="Group-1517"></g>
            <g id="Group-1528"></g>
            <g id="Group-1539"></g>
            <g id="Group-1558"></g>
            <g id="Group-1607"></g>
            <g id="Group-1672"></g>
            <g id="Group-1760">
                <mask id="mask-30" sketch:name="Clip 1758" fill="white">
                    <use xlink:href="#path-29"></use>
                </mask>
                <g id="Clip-1758"></g>
            </g>
            <g id="Group-1813"></g>
            <g id="Group-1844">
                <mask id="mask-32" sketch:name="Clip 1841" fill="white">
                    <use xlink:href="#path-31"></use>
                </mask>
                <g id="Clip-1841"></g>
            </g>
            <g id="Group-1858"></g>
            <g id="Group-1956">
                <mask id="mask-34" sketch:name="Clip 1954" fill="white">
                    <use xlink:href="#path-33"></use>
                </mask>
                <g id="Clip-1954"></g>
            </g>
            <g id="Group-1992">
                <mask id="mask-36" sketch:name="Clip 1989" fill="white">
                    <use xlink:href="#path-35"></use>
                </mask>
                <g id="Clip-1989"></g>
            </g>
            <g id="Group-2002">
                <mask id="mask-38" sketch:name="Clip 1999" fill="white">
                    <use xlink:href="#path-37"></use>
                </mask>
                <g id="Clip-1999"></g>
            </g>
            <g id="Group-2046">
                <mask id="mask-40" sketch:name="Clip 2043" fill="white">
                    <use xlink:href="#path-39"></use>
                </mask>
                <g id="Clip-2043"></g>
            </g>
            <g id="Group-2102">
                <mask id="mask-42" sketch:name="Clip 2098" fill="white">
                    <use xlink:href="#path-41"></use>
                </mask>
                <g id="Clip-2098"></g>
            </g>
            <g id="Group-2116">
                <mask id="mask-44" sketch:name="Clip 2109" fill="white">
                    <use xlink:href="#path-43"></use>
                </mask>
                <g id="Clip-2109"></g>
            </g>
            <g id="Group-2202">
                <mask id="mask-46" sketch:name="Clip 2194" fill="white">
                    <use xlink:href="#path-45"></use>
                </mask>
                <g id="Clip-2194"></g>
            </g>
            <g id="Group-2364">
                <mask id="mask-48" sketch:name="Clip 2363" fill="white">
                    <use xlink:href="#path-47"></use>
                </mask>
                <g id="Clip-2363"></g>
            </g>
            <g id="Group-2371"></g>
            <g id="Group-2419">
                <mask id="mask-50" sketch:name="Clip 2418" fill="white">
                    <use xlink:href="#path-49"></use>
                </mask>
                <g id="Clip-2418"></g>
            </g>
            <g id="Group-2422" transform="translate(637.000000, 1717.000000)">
                <mask id="mask-52" sketch:name="Clip 2421" fill="white">
                    <use xlink:href="#path-51"></use>
                </mask>
                <g id="Clip-2421"></g>
                <path d="M-5,-4.013 L39,-4.013 L39,39.987 L-5,39.987 L-5,-4.013 Z" id="Fill-2420" fill="#5ECC66" sketch:type="MSShapeGroup" mask="url(#mask-52)"></path>
            </g>
            <path d="M654,1718.9872 C645.178,1718.9872 638,1726.1652 638,1734.9872 C638,1743.8092 645.178,1750.9872 654,1750.9872 C662.822,1750.9872 670,1743.8092 670,1734.9872 C670,1726.1652 662.822,1718.9872 654,1718.9872 M654,1752.9872 C644.075,1752.9872 636,1744.9122 636,1734.9872 C636,1725.0622 644.075,1716.9872 654,1716.9872 C663.925,1716.9872 672,1725.0622 672,1734.9872 C672,1744.9122 663.925,1752.9872 654,1752.9872" id="Fill-2423" fill="#314E55" sketch:type="MSShapeGroup"></path>
            <g id="Group-2427" transform="translate(625.000000, 1702.000000)">
                <mask id="mask-54" sketch:name="Clip 2426" fill="white">
                    <use xlink:href="#path-53"></use>
                </mask>
                <g id="Clip-2426"></g>
                <path d="M-5,-4.013 L22,-4.013 L22,22.987 L-5,22.987 L-5,-4.013 Z" id="Fill-2425" fill="#81A4E3" sketch:type="MSShapeGroup" mask="url(#mask-54)"></path>
            </g>
            <g id="Group-2436" transform="translate(619.000000, 1699.000000)" fill="#314E55" sketch:type="MSShapeGroup">
                <path d="M14.5,4.9872 C10.364,4.9872 7,8.3512 7,12.4872 C7,16.6232 10.364,19.9872 14.5,19.9872 C18.636,19.9872 22,16.6232 22,12.4872 C22,8.3512 18.636,4.9872 14.5,4.9872 M14.5,21.9872 C9.262,21.9872 5,17.7252 5,12.4872 C5,7.2492 9.262,2.9872 14.5,2.9872 C19.738,2.9872 24,7.2492 24,12.4872 C24,17.7252 19.738,21.9872 14.5,21.9872" id="Fill-2428"></path>
                <path d="M34.752,3.0428 C34.226,3.0428 33.784,2.6308 33.755,2.0988 C33.724,1.5478 34.146,1.0748 34.697,1.0448 C35.378,1.0068 36.063,0.9868 36.752,0.9868 C37.305,0.9868 37.752,1.4348 37.752,1.9868 C37.752,2.5398 37.305,2.9868 36.752,2.9868 C36.1,2.9868 35.452,3.0048 34.809,3.0408 C34.79,3.0418 34.771,3.0428 34.752,3.0428 M24.979,4.9718 C24.564,4.9718 24.178,4.7128 24.034,4.2998 C23.853,3.7778 24.129,3.2078 24.65,3.0268 C25.295,2.8038 25.947,2.5958 26.607,2.4058 C27.146,2.2518 27.692,2.5618 27.845,3.0908 C27.997,3.6218 27.69,4.1758 27.16,4.3278 C26.535,4.5078 25.916,4.7038 25.307,4.9158 C25.198,4.9538 25.087,4.9718 24.979,4.9718 M16.12,9.5378 C15.807,9.5378 15.498,9.3908 15.303,9.1148 C14.983,8.6648 15.091,8.0408 15.542,7.7218 C16.101,7.3258 16.671,6.9458 17.252,6.5808 C17.719,6.2868 18.337,6.4288 18.631,6.8968 C18.924,7.3648 18.782,7.9818 18.315,8.2758 C17.765,8.6198 17.226,8.9798 16.696,9.3548 C16.522,9.4788 16.319,9.5378 16.12,9.5378 M8.862,16.3678 C8.643,16.3678 8.422,16.2958 8.237,16.1478 C7.807,15.8028 7.737,15.1728 8.083,14.7418 C8.512,14.2078 8.956,13.6858 9.414,13.1768 C9.783,12.7658 10.416,12.7338 10.826,13.1028 C11.236,13.4718 11.271,14.1038 10.9,14.5148 C10.468,14.9958 10.049,15.4888 9.644,15.9938 C9.445,16.2398 9.155,16.3678 8.862,16.3678 M3.768,24.9258 C3.639,24.9258 3.508,24.9008 3.383,24.8488 C2.873,24.6358 2.632,24.0498 2.845,23.5408 C3.109,22.9068 3.392,22.2828 3.691,21.6688 C3.933,21.1728 4.529,20.9648 5.028,21.2088 C5.524,21.4508 5.731,22.0498 5.488,22.5458 C5.206,23.1248 4.94,23.7138 4.69,24.3108 C4.53,24.6938 4.158,24.9258 3.768,24.9258 M1.244,34.5638 C1.206,34.5638 1.168,34.5628 1.13,34.5578 C0.581,34.4948 0.187,33.9998 0.25,33.4508 C0.328,32.7658 0.427,32.0868 0.543,31.4148 C0.637,30.8708 1.158,30.5078 1.699,30.6008 C2.243,30.6948 2.608,31.2128 2.514,31.7568 C2.403,32.3918 2.311,33.0308 2.236,33.6778 C2.179,34.1888 1.746,34.5638 1.244,34.5638" id="Fill-2430"></path>
                <path d="M46.4912,48.3797 C46.4122,48.3257 44.5392,47.0487 43.9922,44.9477 C43.8302,44.3247 43.7912,43.7017 43.7542,43.0987 C43.6732,41.7897 43.5962,40.5547 42.3662,39.0017 C41.6512,38.0997 40.7852,37.5957 39.9472,37.1087 C38.6272,36.3407 37.1312,35.4707 37.1092,33.1667 C37.1052,32.7677 37.0902,32.4287 37.0762,32.1367 C36.9552,29.5707 37.5742,29.2907 41.0082,27.7357 C44.4632,26.1717 44.9312,23.0657 44.9362,23.0337 L46.9172,23.3097 C46.8932,23.4817 46.2812,27.5447 41.8322,29.5587 C39.0162,30.8327 39.0162,30.8327 39.0742,32.0427 C39.0892,32.3567 39.1052,32.7197 39.1092,33.1477 C39.1202,34.2697 39.6492,34.6217 40.9522,35.3797 C41.8572,35.9057 42.9842,36.5617 43.9342,37.7597 C45.5542,39.8047 45.6632,41.5627 45.7502,42.9757 C45.7842,43.5287 45.8142,44.0087 45.9282,44.4437 C46.2802,45.7977 47.5942,46.7107 47.6062,46.7197 L46.4912,48.3797 Z" id="Fill-2432"></path>
                <path d="M27.7588,43.3329 C24.5268,43.3329 20.7728,42.9319 18.6548,42.6679 L18.9038,40.6839 C24.1228,41.3329 30.2198,41.5749 31.7708,40.9799 C31.5308,40.7649 30.9378,40.3499 29.5068,39.8269 C27.3868,39.0509 24.9878,37.5349 24.6138,35.6059 C24.4278,34.6449 24.7808,33.7049 25.6088,32.9599 C26.2118,32.4159 26.5228,31.9359 26.5298,31.5319 C26.5378,31.0579 26.1388,30.4439 25.2718,29.6039 C23.7338,28.1129 21.5328,26.8719 21.5108,26.8589 L22.4888,25.1149 C22.5878,25.1709 24.9408,26.4979 26.6638,28.1679 C27.6008,29.0759 28.5548,30.1899 28.5298,31.5689 C28.5108,32.5619 27.9928,33.5029 26.9468,34.4459 C26.5038,34.8449 26.5558,35.1119 26.5778,35.2269 C26.7188,35.9559 28.0338,37.1589 30.1948,37.9479 C31.7848,38.5299 33.9028,39.4909 33.9228,41.1149 C33.9278,41.5719 33.7318,42.0029 33.3678,42.3269 C32.5208,43.0849 30.3008,43.3329 27.7588,43.3329" id="Fill-2434"></path>
            </g>
            <g id="Group-2469"></g>
            <g id="Group-2573">
                <mask id="mask-56" sketch:name="Clip 2545" fill="white">
                    <use xlink:href="#path-55"></use>
                </mask>
                <g id="Clip-2545"></g>
            </g>
            <g id="Group-2581">
                <mask id="mask-58" sketch:name="Clip 2580" fill="white">
                    <use xlink:href="#path-57"></use>
                </mask>
                <g id="Clip-2580"></g>
            </g>
            <g id="Group-2593"></g>
            <g id="Group-2702">
                <mask id="mask-60" sketch:name="Clip 2698" fill="white">
                    <use xlink:href="#path-59"></use>
                </mask>
                <g id="Clip-2698"></g>
            </g>
            <g id="Group-2912">
                <mask id="mask-62" sketch:name="Clip 2908" fill="white">
                    <use xlink:href="#path-61"></use>
                </mask>
                <g id="Clip-2908"></g>
            </g>
            <g id="Group-3044">
                <mask id="mask-64" sketch:name="Clip 3039" fill="white">
                    <use xlink:href="#path-63"></use>
                </mask>
                <g id="Clip-3039"></g>
            </g>
        </g>
        <g id="Free_sliced" sketch:type="MSLayerGroup" transform="translate(-600.000000, -1680.000000)"></g>
    </g>
</svg>