<svg xmlns="http://www.w3.org/2000/svg" version="1.1" x="0" y="0" viewBox="0 0 256.3 90" xml:space="preserve"><style type="text/css">
	.st0{fill:#00FFFF;}
	.st1{fill:#5D5E60;}
	.st2{fill:#FE9298;}
	.st3{fill:#3A3A3D;}
	.st4{fill:#606063;}
</style><path class="st0" d="M235.6 82.5c0-2.2-1.8-4-4-4.1l-47.6 0 48.9-60.8c1.4-1.7 1.7-4.1 0.7-6.1 -1-2-3-3.3-5.2-3.3l-56.7 0c-2.2 0-4 1.7-4.1 3.9l0 3.5c0 2.2 1.7 4 3.9 4.1l44.8 0.1 -48.9 60.8c-1.4 1.7-1.7 4.1-0.7 6.1 1 2 3 3.3 5.2 3.3l59.5 0c2.2 0 4-1.8 4.1-4L235.6 82.5z"/><path class="st0" d="M9.7 9.7C8.2 8.1 5.7 8 4 9.5l-2.6 2.4c-1.6 1.5-1.7 4-0.2 5.7l28.1 31.1L1.2 80.1c-1.5 1.6-1.4 4.2 0.2 5.7L4 88.2c1.6 1.5 4.2 1.4 5.7-0.2l0 0c0.5-0.3 35-39.5 35-39.5"/><path class="st0" d="M95.9 9.7c-1.5-1.6-4-1.7-5.7-0.2l-2.6 2.4c-1.6 1.5-1.7 4-0.2 5.7l28.1 31.1L87.4 80.1c-1.5 1.6-1.4 4.2 0.2 5.7l2.6 2.4c1.6 1.5 4.2 1.4 5.7-0.2l0 0c0.5-0.3 35-39.5 35-39.5"/><path class="st0" d="M73.6 11.6l-2.7-2.4C69.3 8 67 8.1 65.6 9.7L42.5 35.5c-1.4 1.5-1.4 3.5 0.2 5l2.5 2.8c1.5 1.4 4 1.4 5.4-0.2L73.9 17C75.3 15.4 75.1 13 73.6 11.6z"/><path class="st0" d="M159.9 11.6l-2.7-2.4c-1.6-1.3-3.9-1.1-5.3 0.4l-23.1 25.9c-1.5 1.5-1.4 3.5 0.2 5l2.5 2.8c1.5 1.5 4 1.4 5.5-0.2L160.2 17C161.6 15.4 161.5 13 159.9 11.6z"/><path class="st0" d="M73.8 80.3c0 0-1.2-1.3-1.3-1.4 -5.5-5.9-23-24.3-23-24.3C48 53.1 45.5 53 44 54.5l-2.4 2.8c-1.5 1.5-1.6 3.5-0.1 5l24.1 25.5c1.4 1.6 3.9 1.6 5.5 0.2l2.5-2.3C75.1 84.3 75.2 81.8 73.8 80.3z"/><path class="st1" d="M245.2 5.6L245.2 5.6c0-3 2.4-5.6 5.5-5.6 3.1 0 5.5 2.5 5.5 5.5v0c0 3-2.4 5.5-5.5 5.5C247.6 11.1 245.2 8.6 245.2 5.6zM255.5 5.6L255.5 5.6c0-2.7-2.1-4.9-4.9-4.9 -2.7 0-4.9 2.2-4.9 4.9v0c0 2.7 2.1 4.9 4.9 4.9C253.4 10.5 255.5 8.3 255.5 5.6zM248.5 2.7h2.5c1.2 0 2.1 0.6 2.1 1.8 0 0.9-0.5 1.5-1.3 1.7l1.5 2.1h-1.3l-1.3-1.9h-1.2v1.9h-1.1V2.7zM250.9 5.5c0.7 0 1.1-0.4 1.1-0.9 0-0.6-0.4-0.9-1.1-0.9h-1.4v1.8H250.9z"/><path class="st2" d="M242.1 82.5c0-2.2-1.8-4-4-4.1l-47.6 0 48.9-60.8c1.4-1.7 1.7-4.1 0.7-6.1 -1-2-3-3.3-5.2-3.3l-56.7 0c-2.2 0-4 1.7-4.1 3.9l0 3.5c0 2.2 1.7 4 3.9 4.1l44.8 0.1L174 80.6c-1.4 1.7-1.7 4.1-0.7 6.1 1 2 3 3.3 5.2 3.3l59.5 0c2.2 0 4-1.8 4.1-4L242.1 82.5z"/><path class="st2" d="M16.2 9.7c-1.5-1.6-4-1.7-5.7-0.2l-2.6 2.4c-1.6 1.5-1.7 4-0.2 5.7l28.1 31.1L7.7 80.1c-1.5 1.6-1.4 4.2 0.2 5.7l2.6 2.4c1.6 1.5 4.2 1.4 5.7-0.2l0 0c0.5-0.3 35-39.5 35-39.5"/><path class="st2" d="M102.4 9.7c-1.5-1.6-4-1.7-5.7-0.2l-2.6 2.4c-1.6 1.5-1.7 4-0.2 5.7L122 48.5 93.9 80.1c-1.5 1.6-1.4 4.2 0.2 5.7l2.6 2.4c1.6 1.5 4.2 1.4 5.7-0.2l0 0c0.5-0.3 35-39.5 35-39.5"/><path class="st2" d="M80 11.6l-2.7-2.4c-1.6-1.3-3.9-1.1-5.3 0.4L49 35.5c-1.4 1.5-1.4 3.5 0.2 5l2.5 2.8c1.5 1.4 4 1.4 5.4-0.2L80.4 17C81.8 15.4 81.6 13 80 11.6z"/><path class="st2" d="M166.4 11.6l-2.7-2.4c-1.6-1.3-3.9-1.1-5.3 0.4l-23.1 25.9c-1.5 1.5-1.4 3.5 0.2 5l2.5 2.8c1.5 1.5 4 1.4 5.5-0.2L166.7 17C168.1 15.4 168 13 166.4 11.6z"/><path class="st2" d="M80.2 80.3c0 0-1.2-1.3-1.3-1.4C73.4 73 56 54.6 56 54.6c-1.5-1.5-3.9-1.6-5.5-0.1l-2.4 2.8c-1.5 1.5-1.6 3.5-0.1 5l24.1 25.5c1.4 1.6 3.9 1.6 5.5 0.2l2.5-2.3C81.6 84.3 81.7 81.8 80.2 80.3z"/><path class="st3" d="M238.5 82.5c0-2.2-1.8-4-4-4.1l-47.6 0 48.9-60.8c1.4-1.7 1.7-4.1 0.7-6.1 -1-2-3-3.3-5.2-3.3l-56.7 0c-2.2 0-4 1.7-4.1 3.9l0 3.5c0 2.2 1.7 4 3.9 4.1l44.8 0.1 -48.9 60.8c-1.4 1.7-1.7 4.1-0.7 6.1 1 2 3 3.3 5.2 3.3l59.5 0c2.2 0 4-1.8 4.1-4L238.5 82.5z"/><path class="st3" d="M12.7 9.7C11.2 8.1 8.6 8 7 9.5l-2.6 2.4c-1.6 1.5-1.7 4-0.2 5.7l28.1 31.1L4.2 80.1c-1.5 1.6-1.4 4.2 0.2 5.7L7 88.2c1.6 1.5 4.2 1.4 5.7-0.2l0 0c0.5-0.3 35-39.5 35-39.5"/><path class="st3" d="M98.8 9.7c-1.5-1.6-4-1.7-5.7-0.2l-2.6 2.4c-1.6 1.5-1.7 4-0.2 5.7l28.1 31.1L90.4 80.1c-1.5 1.6-1.4 4.2 0.2 5.7l2.6 2.4c1.6 1.5 4.2 1.4 5.7-0.2l0 0c0.5-0.3 35-39.5 35-39.5"/><path class="st4" d="M76.5 11.6l-2.7-2.4c-1.6-1.3-3.9-1.1-5.3 0.4L45.4 35.5c-1.4 1.5-1.4 3.5 0.2 5l2.5 2.8c1.5 1.4 4 1.4 5.4-0.2L76.9 17C78.3 15.4 78.1 13 76.5 11.6z"/><path class="st4" d="M162.9 11.6l-2.7-2.4c-1.6-1.3-3.9-1.1-5.3 0.4l-23.1 25.9c-1.5 1.5-1.4 3.5 0.2 5l2.5 2.8c1.5 1.5 4 1.4 5.5-0.2L163.2 17C164.6 15.4 164.4 13 162.9 11.6z"/><path class="st4" d="M76.7 80.3c0 0-1.2-1.3-1.3-1.4 -5.5-5.9-23-24.3-23-24.3C51 53.1 48.5 53 47 54.5l-2.4 2.8c-1.5 1.5-1.6 3.5-0.1 5l24.1 25.5c1.4 1.6 3.9 1.6 5.5 0.2l2.5-2.3C78.1 84.3 78.2 81.8 76.7 80.3z"/></svg>